inDegrees=no
num_controls=7
num_derivatives=13
num_iterations=86
num_multipliers=7
num_parameters=0
num_slacks=7
num_states=26
objective=0.442357
objective_accelerations=0.057184
objective_balance=0.001019
objective_effort=0.046261
objective_height=0.331918
objective_ligament=0.005976
solver_duration=983.495364
status=Solve_Succeeded
success=true
DataType=double
version=3
OpenSimVersion=4.5
endheader
time	/jointset/ground_pelvis/pelvis_tilt/value	/jointset/ground_pelvis/pelvis_tx/value	/jointset/ground_pelvis/pelvis_ty/value	/jointset/hip_r/hip_flexion_r/value	/jointset/hip_r/hip_adduction_r/value	/jointset/hip_r/hip_rotation_r/value	/jointset/back/lumbar_extension/value	/jointset/patellofemoral_r/patellar_flexion_r/value	/jointset/knee_r/knee_flexion_r/value	/jointset/knee_r/knee_adduction_r/value	/jointset/knee_r/knee_rotation_r/value	/jointset/ankle_r/ankle_angle_r/value	/jointset/subtalar_r/subtalar_angle_r/value	/jointset/ground_pelvis/pelvis_tilt/speed	/jointset/ground_pelvis/pelvis_tx/speed	/jointset/ground_pelvis/pelvis_ty/speed	/jointset/hip_r/hip_flexion_r/speed	/jointset/hip_r/hip_adduction_r/speed	/jointset/hip_r/hip_rotation_r/speed	/jointset/back/lumbar_extension/speed	/jointset/patellofemoral_r/patellar_flexion_r/speed	/jointset/knee_r/knee_flexion_r/speed	/jointset/knee_r/knee_adduction_r/speed	/jointset/knee_r/knee_rotation_r/speed	/jointset/ankle_r/ankle_angle_r/speed	/jointset/subtalar_r/subtalar_angle_r/speed	/forceset/tau_hip_flexion_r	/forceset/tau_hip_adduction_r	/forceset/tau_hip_rotation_r	/forceset/tau_knee_flexion_r	/forceset/tau_ankle_angle_r	/forceset/tau_subtalar_angle_r	/forceset/tau_lumbar_extension	lambda_cid13_p0	lambda_cid14_p0	lambda_cid14_p1	lambda_cid14_p2	lambda_cid14_p3	lambda_cid14_p4	lambda_cid14_p5	/jointset/ground_pelvis/pelvis_tilt/accel	/jointset/ground_pelvis/pelvis_tx/accel	/jointset/ground_pelvis/pelvis_ty/accel	/jointset/hip_r/hip_flexion_r/accel	/jointset/hip_r/hip_adduction_r/accel	/jointset/hip_r/hip_rotation_r/accel	/jointset/back/lumbar_extension/accel	/jointset/patellofemoral_r/patellar_flexion_r/accel	/jointset/knee_r/knee_flexion_r/accel	/jointset/knee_r/knee_adduction_r/accel	/jointset/knee_r/knee_rotation_r/accel	/jointset/ankle_r/ankle_angle_r/accel	/jointset/subtalar_r/subtalar_angle_r/accel	gamma_cid13_p0	gamma_cid14_p0	gamma_cid14_p1	gamma_cid14_p2	gamma_cid14_p3	gamma_cid14_p4	gamma_cid14_p5
1.5	-0.1335739267885048	0.01334623603097466	0.7773482477187582	0.9753793969892648	-0.2541509158806922	-0.0142756629225468	-0.645932948708967	1.080636903024442	1.080636903024804	0.06061746602175069	0.1730940736120853	0.3191706519368644	0.09699993535940633	0.5800895962875153	0.2456842782751075	0.6633548261474648	-2.448266775065284	0.01222954344525234	-0.621933262714884	0.7840492874674336	-2.303477693928939	-2.30347769392935	0.1076502675912344	0.006115137190242127	-0.533546352485047	-0.1567402393102729	-0.1910689081557441	0.0007733493789655405	0.04115028031840086	-0.3313234752402562	0.02960127729018909	-0.018248945635425	0.234123187933366	-2.868256720532418	-33.23839082184329	-13.95830258919773	2.890547746831288	-6.15112703651675	-627.5826480052963	57.81097716607916	0.3413698264591904	0.7562318076486093	-0.5937449262798512	-1.241128131678559	0.3563214552424106	-0.1639476267698549	2.129517779800333	-1.774138575171463	-1.774138575171458	0.4371230032611795	0.01241700629419345	-0.9180899738573698	0.3836594667654736	1.411560932136227e-07	4.287569323263617e-08	-2.483752715235e-06	1.031478017127162e-07	2.415648489781208e-07	3.153884259709544e-07	-1.620517037056583e-06
1.51	-0.1277562106135254	0.01584068854193456	0.7839507870727472	0.9508367503590939	-0.2540117400071511	-0.02050433643742509	-0.6379877657457133	1.057516039789585	1.057516039790227	0.06171647773052048	0.1731584158109494	0.3137898437752714	0.09545034934541341	0.5833583255603044	0.2531803542389824	0.6570080340513486	-2.459941151296249	0.01560293817652469	-0.6237346587125371	0.8048881384695903	-2.320381355447232	-2.320381355447279	0.1121894333455515	0.006741925316693136	-0.5425186051127957	-0.153159531116513	-0.1827020074136931	-0.0007874414617170845	0.04047695604640363	-0.3258080510682539	0.03087975929011774	-0.0183531010019813	0.2265006942480287	-3.618559207738683	-32.41139499900449	-13.70614454609931	2.67605034572244	-6.240963859124606	-621.2116859545314	57.59322862923654	0.3053282368372199	0.7424646918902564	-0.6768267052311572	-1.082378951999059	0.3273086054349627	-0.1779568456977423	2.046193753362375	-1.601470749993289	-1.601470749938771	0.4675492892675014	0.0860475502664908	-0.8722043193815219	0.347488314721164	1.484750771812862e-07	4.460514801079087e-08	-2.598199072554505e-06	1.245394982635981e-07	2.459863543660416e-07	3.423105030845795e-07	-1.681306838890409e-06
1.52	-0.1219086663939883	0.01840933565275988	0.7904855224349842	0.9261870026499752	-0.2538389381616238	-0.02674896816416661	-0.6298371692738501	1.034235541777579	1.034235541778503	0.06286192828238743	0.173228673457966	0.3083222308049711	0.09393701277716615	0.5860552051990309	0.2605231982481936	0.6497940277970857	-2.469686990854957	0.01895473784240841	-0.6251249050875773	0.825131989189308	-2.335404649358928	-2.335404649358611	0.116938036209888	0.007298226820980168	-0.5509073142264609	-0.1494903501611555	-0.1743351066716374	-0.002348232302395028	0.03980363177439725	-0.3202926268962514	0.03215824129004744	-0.01845725636852972	0.2188782005626953	-4.459218123037904	-31.57916236304931	-13.44494333116218	2.450829173593079	-6.356757638842693	-614.7518868412562	57.43135747499536	0.2269998996466179	0.725585416715873	-0.7671877579091703	-0.8554207972271453	0.3520024421646926	-0.0817177022473049	2.010517723312509	-1.398065053851883	-1.398065053851873	0.4790104252650637	-0.001680318138612793	-0.8013812710406948	0.4013540190850072	1.572403972159055e-07	4.692889380246929e-08	-2.710850585891322e-06	1.565490708144177e-07	2.503811248583917e-07	3.693095762567581e-07	-1.73910567280263e-06
1.53	-0.116036995032153	0.02105056893030459	0.7969438628501287	0.9014494051626588	-0.2536328004177618	-0.03300551602040224	-0.6214873387775913	1.010814284375189	1.010814284375582	0.06405600904455735	0.1733042247772663	0.3027736991651836	0.09246071425786462	0.5881793412168702	0.2676892588305955	0.6417356350476814	-2.477499656471903	0.0222665854333959	-0.6261136951476376	0.844717544544329	-2.348517176211486	-2.348517176211094	0.1219153940534764	0.007795088891301889	-0.5586934812929921	-0.1457563083542192	-0.1659432347845567	-0.00404106033977895	0.0390760549460718	-0.3151320751131638	0.03352511092160051	-0.0186707799545433	0.2112084172263952	-5.390189099025504	-30.75033461965674	-13.23660033093871	2.239476035313653	-6.42031053873814	-608.6172061642679	57.23226295690296	0.1901611159747575	0.7070380314833005	-0.8458458834160714	-0.6942589187795849	0.3196922774613754	-0.09652730300210118	1.91508961387619	-1.218432876354567	-1.218432876343153	0.5122873899780294	0.07278914717165931	-0.7513123408470643	0.3609582373718854	1.675424493216653e-07	4.988407379601664e-08	-2.821595077496533e-06	1.998401366151707e-07	2.54747489524198e-07	3.963904577411497e-07	-1.793726603298145e-06
1.54	-0.1101470741775149	0.02376244714416952	0.8033174831677873	0.8766436671242031	-0.2533937609260103	-0.03926976530626161	-0.6129451496933265	0.9872717844291941	0.9872717844290561	0.06530090117037887	0.1733842286527804	0.297150490271453	0.09102206195180731	0.5897051037595956	0.2746521855122389	0.6328500082998755	-2.483315101082898	0.02553508742020625	-0.6266651910123656	0.8636037067905215	-2.359653158079912	-2.359653158079444	0.1271003089399554	0.008188738063786	-0.5658427650150324	-0.1419611075123239	-0.1575513628974728	-0.005733888377158712	0.03834847811774826	-0.3099715233300758	0.03489198055315459	-0.01888430354055015	0.2035386338900974	-6.410829782780671	-29.91541459583916	-13.01868051656151	2.016875403852372	-6.508756534968079	-602.3813030866593	57.09108517093937	0.1073252046237997	0.6849586365641587	-0.9326345575894546	-0.455976596036908	0.3433333213292739	0.005741136819164659	1.870639101546791	-1.002756057025148	-1.00275605702515	0.5205218338431782	-0.02232289770614762	-0.6740046021424847	0.413585826076846	1.779656699974383e-07	5.33637802445866e-08	-2.911883642199491e-06	2.516858949537943e-07	2.573205245728122e-07	4.218383556257657e-07	-1.836314408334377e-06
1.55	-0.1042448381690111	0.02654285724962892	0.8095982042543806	0.8517897146090829	-0.2531223656870765	-0.04553739067817633	-0.6042177886697296	0.9636279001816856	0.9636279001818731	0.06659884644361541	0.1734677859250276	0.2914590095125442	0.08962151459169834	0.59064397142283	0.2813868497254571	0.6231643726059631	-2.487136678564962	0.02872872393123832	-0.6267914769255786	0.8817345268149616	-2.368777443705372	-2.368777443705095	0.1325287766445575	0.008513467630357834	-0.5723409183676386	-0.1381478334811916	-0.1492723403760071	-0.007544764397815	0.03756051141435118	-0.3050696661598331	0.03614285558781352	-0.01917731793746567	0.1959427996449598	-7.51967060044141	-29.15458323526126	-12.84828640131993	1.801886612862658	-6.495196084592534	-596.5776466652818	56.92251437703346	0.07244764885024081	0.6613240573473896	-1.005911837766808	-0.2944366070728885	0.3049390359718422	-0.0112448357168497	1.764207785807618	-0.8153665372151071	-0.8153665372438509	0.5595895184546149	0.05847360751516288	-0.6207566167832481	0.3648436765075527	1.885284979386614e-07	5.744783239133473e-08	-2.97860342155855e-06	3.133881468686595e-07	2.578273320190096e-07	4.454047724062926e-07	-1.865037960124046e-06
1.56	-0.09833615746353966	0.02938933474594988	0.8157781922315396	0.8269077086625859	-0.2528195220390358	-0.05180416518528778	-0.5953131385793053	0.9399031527335421	0.9399031527340505	0.06795219244983716	0.1735543110376755	0.2857059400371164	0.088259029068876	0.5909940431531432	0.2878656636845484	0.6127033864130621	-2.488925787358296	0.0318247692415357	-0.6264950180518034	0.8990615201560013	-2.375825798207181	-2.375825798207095	0.1381804555365939	0.008782306143980942	-0.578160508318787	-0.1343487400550129	-0.1409933178545401	-0.009355640418466123	0.03677254471095473	-0.3001678089895902	0.03739373062247384	-0.01947033233437289	0.1883469653998228	-8.714142697542409	-28.38753456410692	-12.66806441023941	1.575348426448422	-6.505420915894871	-590.6714545940717	56.81452598424767	-0.01043398196046604	0.6337885857387964	-1.087704657387154	-0.04948285829115461	0.3238150811823466	0.09029009421677892	1.709873764866708	-0.5875698322949793	-0.5875698322950046	0.5651640713300462	-0.03350110829590913	-0.5382919218508965	0.4107497050861476	1.928706044251794e-07	6.941878535225977e-08	-2.808721355757932e-06	4.260970725038914e-07	2.307855696052951e-07	4.551621276831443e-07	-1.750924105779294e-06
